<?xml version="1.0" encoding="UTF-8"?>
<svg id="Layer_1" data-name="Layer 1" xmlns="http://www.w3.org/2000/svg" xmlns:xlink="http://www.w3.org/1999/xlink" viewBox="0 0 1023.74 575.85">
  <defs>
    <style>
      .cls-1 {
        fill: #0055b8;
      }

      .cls-2 {
        clip-path: url(#clippath-2);
      }

      .cls-3 {
        clip-path: url(#clippath-1);
      }

      .cls-4 {
        stroke: #0055b8;
        stroke-miterlimit: 10;
        stroke-width: 8.58px;
      }

      .cls-4, .cls-5 {
        fill: none;
      }

      .cls-6 {
        clip-path: url(#clippath);
      }

      .cls-7 {
        fill: #002b76;
      }

      .cls-8 {
        fill: url(#linear-gradient);
      }
    </style>
    <clipPath id="clippath">
      <rect class="cls-5" width="1023.74" height="575.85"/>
    </clipPath>
    <clipPath id="clippath-1">
      <path class="cls-5" d="m203.5,230h-33.72v73.91h-16.94l-14.68,14.38h65.34c13.65,0,25.45-3.75,34.31-10.2v37.85h15.15v-59.29l.23.37,27.38,41.64,27.62-42.01v59.29h15.15v-88.3h-14.02l-28.75,44.41c-9.4-14.81-18.78-29.61-28.16-44.41h-20.6c3.32,4.76,5.12,10.45,5.12,16.51,0,16.02-12.84,29.76-33.12,29.76h-16.11v-59.54h16.11c3.62,0,6.99.44,10.1,1.25h29.72c-2.55-2.69-5.77-5.5-9.77-8-10.65-6.67-21.28-7.71-27.33-7.71-1.2,0-2.21.04-3.02.09"/>
    </clipPath>
    <linearGradient id="linear-gradient" x1="2.41" y1="-97.99" x2="2.94" y2="-97.99" gradientTransform="translate(1103.86 -31656.53) rotate(-180) scale(326.01)" gradientUnits="userSpaceOnUse">
      <stop offset="0" stop-color="#002b76"/>
      <stop offset=".14" stop-color="#002b76"/>
      <stop offset=".3" stop-color="#0055b8"/>
      <stop offset=".61" stop-color="#0055b8"/>
      <stop offset="1" stop-color="#a6c8ff"/>
      <stop offset="1" stop-color="#a6c8ff"/>
    </linearGradient>
    <clipPath id="clippath-2">
      <rect class="cls-5" x="138.16" y="229.91" width="747.42" height="116.02"/>
    </clipPath>
  </defs>
  <g id="_레이어_1" data-name="레이어 1">
    <g class="cls-6">
      <polygon class="cls-7" points="347.93 234.04 347.93 282.41 335.31 270.83 335.31 245.62 309.56 245.62 297.87 234.04 347.93 234.04"/>
      <g class="cls-3">
        <rect class="cls-8" x="124.26" y="181.44" width="212.98" height="212.98" transform="translate(-136.01 247.49) rotate(-45)"/>
      </g>
      <g class="cls-2">
        <path class="cls-1" d="m381.43,331.09v-63.94h18.92c7.69,0,15.47,1.9,21.17,5.62,8.64,5.7,13.91,15.9,13.91,26.7,0,7.95-3.02,15.64-9.24,22.03-6.22,6.48-15.29,9.59-26.1,9.59h-18.66Zm18.15-5.79c10.63,0,17.71-2.77,22.38-7.69,4.84-5.19,7.08-11.84,7.08-18.49,0-8.29-3.46-15.55-10.2-20.74-4.49-3.46-11.32-5.44-19.53-5.44h-11.49v52.36h11.75Z"/>
        <path class="cls-4" d="m381.43,331.09v-63.94h18.92c7.69,0,15.47,1.9,21.17,5.62,8.64,5.7,13.91,15.9,13.91,26.7,0,7.95-3.02,15.64-9.24,22.03-6.22,6.48-15.29,9.59-26.1,9.59h-18.66Zm18.15-5.79c10.63,0,17.71-2.77,22.38-7.69,4.84-5.19,7.08-11.84,7.08-18.49,0-8.29-3.46-15.55-10.2-20.74-4.49-3.46-11.32-5.44-19.53-5.44h-11.49v52.36h11.75Z"/>
        <path class="cls-1" d="m484.76,332.22c-17.45,0-33.78-14.17-33.78-32.75s15.03-33.44,33.78-33.44,33.87,14.86,33.87,33.09-15.29,33.09-33.87,33.09m-.09-60.4c-15.12,0-27.3,12.79-27.3,27.65s12.53,26.96,27.39,26.96,27.48-12.53,27.48-27.22-12.18-27.39-27.56-27.39"/>
        <path class="cls-4" d="m484.76,332.22c-17.45,0-33.78-14.17-33.78-32.75s15.03-33.44,33.78-33.44,33.87,14.86,33.87,33.09-15.29,33.09-33.87,33.09Zm-.09-60.4c-15.12,0-27.3,12.79-27.3,27.65s12.53,26.96,27.39,26.96,27.48-12.53,27.48-27.22-12.18-27.39-27.56-27.39Z"/>
        <polygon class="cls-1" points="581.26 331.09 557.85 303.79 535.25 331.09 527.73 331.09 553.78 298.43 528.94 267.15 536.46 267.15 557.85 292.73 580.14 267.15 587.57 267.15 561.56 298.43 588.86 331.09 581.26 331.09"/>
        <polygon class="cls-4" points="581.26 331.09 557.85 303.79 535.25 331.09 527.73 331.09 553.78 298.43 528.94 267.15 536.46 267.15 557.85 292.73 580.14 267.15 587.57 267.15 561.56 298.43 588.86 331.09 581.26 331.09"/>
        <polygon class="cls-1" points="664.77 331.09 664.77 274.15 664.59 274.15 640.66 331.09 635.21 331.09 611.45 274.15 611.28 274.15 611.28 331.09 604.89 331.09 604.89 267.15 614.74 267.15 637.98 321.59 661.31 267.15 671.16 267.15 671.16 331.09 664.77 331.09"/>
        <polygon class="cls-4" points="664.77 331.09 664.77 274.15 664.59 274.15 640.66 331.09 635.21 331.09 611.45 274.15 611.28 274.15 611.28 331.09 604.89 331.09 604.89 267.15 614.74 267.15 637.98 321.59 661.31 267.15 671.16 267.15 671.16 331.09 664.77 331.09"/>
        <polygon class="cls-1" points="758.55 331.09 758.55 267.15 807.35 267.15 807.35 272.94 764.94 272.94 764.94 295.93 807.35 296.23 807.35 302.02 764.94 301.72 764.94 325.3 807.35 325.3 807.35 331.09 758.55 331.09"/>
        <polygon class="cls-4" points="758.55 331.09 758.55 267.15 807.35 267.15 807.35 272.94 764.94 272.94 764.94 295.93 807.35 296.23 807.35 302.02 764.94 301.72 764.94 325.3 807.35 325.3 807.35 331.09 758.55 331.09"/>
        <polygon class="cls-1" points="690.6 331.09 690.6 267.15 739.4 267.15 739.4 272.94 696.99 272.94 696.99 295.93 739.4 296.23 739.4 302.02 696.99 301.72 696.99 325.3 739.4 325.3 739.4 331.09 690.6 331.09"/>
        <polygon class="cls-4" points="690.6 331.09 690.6 267.15 739.4 267.15 739.4 272.94 696.99 272.94 696.99 295.93 739.4 296.23 739.4 302.02 696.99 301.72 696.99 325.3 739.4 325.3 739.4 331.09 690.6 331.09"/>
        <polygon class="cls-1" points="850.59 331.09 850.59 272.94 826.14 272.94 826.14 267.15 881.28 267.15 881.28 272.94 856.99 272.94 856.99 331.09 850.59 331.09"/>
        <polygon class="cls-4" points="850.59 331.09 850.59 272.94 826.14 272.94 826.14 267.15 881.28 267.15 881.28 272.94 856.99 272.94 856.99 331.09 850.59 331.09"/>
      </g>
    </g>
  </g>
</svg>